<?xml version="1.0" standalone="no"?>
<!DOCTYPE svg PUBLIC "-//W3C//DTD SVG 20010904//EN"
 "http://www.w3.org/TR/2001/REC-SVG-20010904/DTD/svg10.dtd">
<svg version="1.0" xmlns="http://www.w3.org/2000/svg"
 width="512.000000pt" height="512.000000pt" viewBox="0 0 512.000000 512.000000"
 preserveAspectRatio="xMidYMid meet">
<metadata>
Created by potrace 1.16, written by Peter Selinger 2001-2019
</metadata>
<g transform="translate(0.000000,512.000000) scale(0.100000,-0.100000)"
fill="#000000" stroke="none">
<path d="M2296 4614 c-107 -19 -245 -67 -337 -116 -165 -88 -399 -290 -489
-423 -28 -42 -16 -33 83 63 63 61 120 112 125 112 5 0 51 32 102 70 228 173
402 241 690 271 89 9 147 9 249 1 123 -11 153 -10 140 3 -3 2 -47 11 -99 20
-118 19 -357 18 -464 -1z"/>
<path d="M2435 4539 c-279 -43 -570 -187 -771 -381 -96 -92 -193 -208 -175
-208 6 0 64 48 128 108 209 190 295 254 316 233 9 -9 2 -20 -33 -49 -251 -207
-408 -389 -510 -592 -144 -287 -255 -612 -279 -820 -13 -110 -22 -254 -16
-248 3 3 14 72 26 154 33 243 83 420 184 659 26 61 55 131 65 157 33 85 98
193 165 271 36 42 72 77 79 77 9 0 12 7 9 19 -9 34 129 162 284 265 57 38 62
44 65 81 3 37 7 42 53 67 28 15 59 34 70 43 91 75 256 113 548 125 120 6 223
13 229 16 6 4 3 11 -8 17 -25 14 -350 19 -429 6z"/>
<path d="M2625 4449 c-169 -22 -433 -87 -399 -99 10 -4 21 -3 22 1 2 5 7 7 11
4 5 -2 23 0 42 5 266 77 564 72 864 -15 112 -33 128 -35 148 -20 16 11 9 16
-55 43 -191 80 -414 108 -633 81z"/>
<path d="M2515 4363 c-156 -20 -348 -81 -471 -150 -95 -53 -166 -105 -286
-209 -48 -42 -96 -83 -105 -91 -14 -10 -9 -10 22 2 50 20 133 76 199 135 111
99 213 162 311 193 76 24 231 59 252 57 10 -1 20 -1 23 0 12 5 116 10 240 12
160 2 276 -17 430 -68 261 -87 506 -260 655 -463 42 -56 61 -76 64 -63 2 9 7
22 12 28 12 14 -108 160 -211 257 -258 243 -592 369 -963 366 -78 -1 -155 -4
-172 -6z"/>
<path d="M2455 4259 c-33 -5 -64 -10 -70 -12 -5 -2 53 -6 130 -10 77 -3 152
-10 166 -15 14 -6 70 -15 125 -22 187 -21 329 -65 489 -149 216 -113 357 -229
481 -395 42 -55 78 -103 80 -104 1 -2 0 5 -3 17 -3 12 -1 27 5 34 8 10 -7 36
-64 107 -101 127 -152 179 -257 260 -162 127 -341 214 -547 266 -91 23 -130
27 -290 29 -102 2 -212 0 -245 -6z"/>
<path d="M2508 4163 c-60 -7 -44 -23 23 -23 54 0 148 -22 174 -40 6 -4 44 -10
85 -14 148 -13 350 -80 479 -158 187 -113 308 -250 471 -534 43 -75 80 -129
83 -122 4 11 9 11 27 0 20 -12 17 -3 -20 65 -59 109 -138 228 -209 318 -34 42
-61 81 -61 86 0 58 152 -126 263 -321 27 -47 47 -76 44 -64 -2 12 0 28 5 37
17 32 -88 201 -197 316 -126 133 -337 280 -502 350 -208 89 -450 126 -665 104z"/>
<path d="M1976 4044 c-100 -58 -182 -121 -268 -206 -88 -85 -82 -86 19 -1 34
28 108 83 165 121 57 38 114 81 127 96 30 32 29 32 -43 -10z"/>
<path d="M2214 4037 c-193 -78 -396 -229 -522 -388 -42 -51 -42 -52 -5 -13 67
72 153 142 226 185 73 42 140 85 232 144 28 18 67 38 87 44 20 7 44 23 52 37
9 13 15 24 14 24 -2 0 -40 -15 -84 -33z"/>
<path d="M2500 4040 c-41 -5 -95 -14 -120 -19 -39 -8 -32 -9 60 -10 104 -1
183 -7 250 -17 19 -3 60 -8 90 -11 59 -6 159 -41 125 -43 -15 -1 -12 -4 10
-11 18 -5 31 -5 35 1 4 7 18 6 39 -1 24 -9 29 -14 19 -20 -10 -7 -10 -9 3 -9
29 0 206 -97 293 -159 91 -66 226 -204 226 -232 0 -9 -7 -20 -16 -23 -11 -4
-49 26 -122 97 -252 242 -502 340 -825 324 -118 -5 -301 -42 -291 -58 3 -5 17
-7 32 -4 15 3 81 8 147 12 276 18 428 -5 597 -87 111 -55 172 -95 211 -139 33
-37 34 -45 5 -30 -13 6 9 -19 49 -55 40 -37 104 -101 144 -144 70 -75 71 -75
26 -16 -26 33 -47 66 -47 72 0 15 26 16 35 2 12 -19 57 -10 81 16 30 31 57 26
98 -19 l29 -32 -18 30 c-119 196 -305 369 -502 469 -194 97 -447 142 -663 116z"/>
<path d="M2085 3848 c-84 -49 -174 -119 -235 -183 -41 -42 -43 -46 -20 -43 32
5 149 88 215 153 28 28 67 62 86 76 56 43 29 41 -46 -3z"/>
<path d="M1313 3732 c-75 -127 -118 -219 -147 -308 -26 -80 -56 -217 -56 -257
0 -39 17 -3 29 63 30 155 65 256 148 419 46 90 82 165 80 167 -1 2 -26 -36
-54 -84z"/>
<path d="M2416 3745 c-152 -32 -269 -86 -407 -190 -100 -74 -214 -193 -235
-243 -8 -20 -13 -36 -11 -38 1 -1 38 33 82 78 44 44 96 88 116 98 19 10 41 26
48 34 8 9 22 16 32 16 10 0 33 15 51 33 123 120 248 169 469 184 238 15 488
-59 640 -189 33 -28 65 -78 51 -78 -6 0 22 -33 62 -74 40 -40 101 -110 135
-154 35 -45 68 -79 73 -76 5 3 17 -1 26 -9 10 -9 46 -20 82 -26 48 -8 69 -17
82 -33 26 -34 22 -12 -13 64 -18 37 -38 68 -44 68 -7 0 -34 21 -60 48 l-47 47
47 -61 c50 -67 58 -109 20 -109 -13 0 -46 35 -102 110 -197 264 -408 422 -651
487 -101 27 -344 34 -446 13z"/>
<path d="M1980 3683 c-62 -41 -176 -133 -165 -133 10 0 213 148 220 160 10 15
3 12 -55 -27z"/>
<path d="M2151 3519 c-134 -83 -375 -325 -388 -391 -3 -16 -16 -36 -29 -45
-13 -8 -24 -22 -24 -29 0 -12 5 -12 29 1 19 9 42 38 62 75 43 81 223 266 374
385 93 73 90 74 -24 4z"/>
<path d="M1365 3440 c-20 -40 -40 -84 -46 -98 -9 -27 -9 -27 16 3 26 31 80
154 71 162 -3 3 -21 -27 -41 -67z"/>
<path d="M2510 3503 c-158 -20 -430 -142 -430 -193 0 -15 13 -11 78 26 122 70
301 119 474 128 87 5 184 -16 270 -60 86 -44 199 -133 228 -179 11 -17 38 -46
62 -65 l43 -35 -23 30 c-12 17 -37 50 -55 75 -71 97 -265 221 -399 254 -63 16
-195 26 -248 19z"/>
<path d="M3205 3420 c10 -11 20 -20 23 -20 3 0 -3 9 -13 20 -10 11 -20 20 -23
20 -3 0 3 -9 13 -20z"/>
<path d="M3952 3405 c13 -22 42 -73 63 -113 25 -48 41 -70 48 -63 18 18 -41
132 -91 176 l-45 40 25 -40z"/>
<path d="M1562 3333 c-57 -84 -140 -258 -129 -269 5 -5 80 112 107 166 12 25
38 67 57 93 31 44 35 67 13 67 -5 0 -27 -26 -48 -57z"/>
<path d="M2338 3360 c-104 -30 -174 -65 -297 -148 -138 -93 -126 -109 23 -31
172 90 215 109 271 124 75 19 313 19 405 0 153 -32 285 -109 429 -249 99 -96
108 -81 14 24 -154 172 -352 272 -539 274 -69 1 -90 4 -87 14 8 19 -140 14
-219 -8z"/>
<path d="M3270 3366 c0 -5 30 -41 68 -80 37 -39 84 -91 105 -116 25 -29 22
-23 -8 15 -58 77 -165 193 -165 181z"/>
<path d="M1632 3323 c-51 -65 -131 -205 -125 -220 6 -16 4 -18 67 56 30 36 46
64 46 82 0 14 12 47 26 73 31 56 26 59 -14 9z"/>
<path d="M2498 3250 c-191 -25 -433 -165 -620 -358 -301 -312 -467 -617 -523
-967 -21 -128 -21 -334 0 -445 9 -47 19 -106 22 -133 3 -26 10 -50 14 -53 20
-12 20 31 3 124 -28 148 -26 394 4 534 34 158 55 218 132 373 78 156 184 309
276 400 174 172 480 395 612 448 60 24 165 37 204 26 18 -4 51 -11 73 -15 22
-3 50 -7 62 -9 105 -16 287 -125 436 -262 36 -33 67 -53 82 -53 13 0 31 -3 40
-6 16 -6 16 -5 0 26 -15 29 -19 31 -27 17 -5 -9 -13 -17 -18 -17 -6 0 -58 46
-117 103 -112 106 -215 182 -297 216 -105 46 -249 66 -358 51z"/>
<path d="M1641 3173 c-84 -94 -184 -233 -168 -233 20 0 38 18 100 95 30 39 69
80 86 93 27 20 61 96 48 109 -3 2 -32 -27 -66 -64z"/>
<path d="M3327 3182 c42 -52 133 -223 133 -251 0 -27 -33 -6 -94 61 -53 59
-66 69 -72 55 -4 -12 12 -46 55 -108 34 -50 64 -103 67 -118 3 -14 39 -96 79
-181 85 -178 116 -268 145 -416 57 -295 -15 -580 -213 -847 -57 -77 -133 -135
-242 -188 -103 -50 -203 -71 -327 -68 -54 2 -101 0 -104 -4 -3 -3 20 -13 52
-22 84 -23 84 -23 84 -35 0 -14 -47 -12 -104 5 -66 20 -66 20 -44 -24 17 -34
26 -41 77 -55 71 -20 77 -20 61 -1 -11 13 -9 21 8 45 12 16 22 33 22 38 0 5
38 12 84 15 57 4 108 15 153 33 214 84 309 172 419 387 47 90 69 145 70 172 1
22 11 65 22 95 30 83 33 101 33 233 0 241 -60 437 -211 697 -21 36 -43 89 -50
119 -12 52 -12 54 15 78 23 22 26 31 20 61 -11 57 -61 153 -112 214 -27 31
-54 59 -60 62 -7 3 8 -20 34 -52z"/>
<path d="M1353 3100 c-48 -147 -58 -189 -45 -175 15 15 94 265 90 284 -2 9
-22 -40 -45 -109z"/>
<path d="M1312 3162 c-16 -38 -62 -185 -62 -200 0 -1 9 2 20 8 11 6 20 18 20
28 0 9 15 61 34 115 23 66 29 97 21 97 -7 0 -22 -22 -33 -48z"/>
<path d="M1041 3103 c-36 -164 -42 -228 -46 -503 -5 -297 8 -287 19 15 9 239
26 408 56 530 12 50 12 55 2 55 -5 0 -19 -44 -31 -97z"/>
<path d="M2668 3163 c7 -3 16 -2 19 1 4 3 -2 6 -13 5 -11 0 -14 -3 -6 -6z"/>
<path d="M3931 3143 c20 -53 58 -226 52 -236 -9 -14 -24 18 -44 92 -13 52 -17
59 -18 34 -1 -28 -5 -33 -26 -33 -19 0 -30 11 -50 48 -30 54 -30 55 24 -143
86 -314 117 -537 108 -789 -5 -166 -23 -282 -57 -382 -25 -72 -25 -86 0 -54
33 42 22 4 -26 -93 -99 -196 -214 -334 -366 -438 -90 -61 -226 -129 -260 -129
-10 0 -18 -5 -18 -10 0 -11 29 -25 73 -35 24 -5 27 -8 16 -21 -9 -11 8 -8 56
11 91 34 225 106 239 127 17 27 -2 34 -27 10 -13 -12 -32 -22 -42 -22 -12 0
20 39 101 123 65 67 138 147 161 177 103 137 200 329 180 361 -8 12 -6 49 6
135 9 66 22 179 29 251 11 125 11 139 -10 230 -12 54 -33 159 -47 233 -15 74
-40 181 -56 236 -34 118 -35 132 -15 115 19 -16 58 -116 85 -216 20 -72 63
-146 77 -132 11 11 -32 235 -103 544 -3 13 -9 20 -14 17 -5 -3 -9 0 -9 5 0 6
-7 11 -15 11 -12 0 -13 -5 -4 -27z"/>
<path d="M3760 3125 c7 -8 17 -12 22 -9 6 4 5 10 -3 15 -22 14 -33 10 -19 -6z"/>
<path d="M2830 3116 c0 -2 26 -19 58 -37 86 -49 238 -206 317 -326 122 -188
207 -387 236 -550 14 -81 29 -97 29 -30 0 135 -114 416 -222 549 -37 46 -96
119 -131 163 -68 85 -156 162 -237 208 -28 16 -50 26 -50 23z"/>
<path d="M3495 3100 c10 -11 20 -20 23 -20 3 0 -3 9 -13 20 -10 11 -20 20 -23
20 -3 0 3 -9 13 -20z"/>
<path d="M4016 3105 c3 -11 14 -44 25 -73 58 -165 101 -500 68 -524 -10 -7 -6
-8 13 -4 25 6 28 3 38 -31 15 -51 9 -215 -7 -221 -14 -4 -15 -2 -34 81 -6 31
-16 57 -21 57 -4 0 -8 -54 -8 -119 0 -136 -20 -311 -49 -419 -12 -46 -15 -74
-9 -78 15 -9 25 11 53 102 20 64 55 226 55 254 0 2 5 -1 11 -7 17 -17 13 -112
-10 -201 -62 -240 -209 -502 -388 -692 -47 -50 -83 -93 -79 -97 18 -19 175
125 264 242 110 145 230 436 233 564 0 20 4 45 8 55 7 19 8 18 15 -5 7 -22 9
-19 26 28 32 89 44 200 44 407 1 164 -2 200 -13 204 -8 3 -24 15 -36 28 l-21
23 14 -82 c10 -53 15 -156 16 -287 1 -182 -1 -208 -17 -230 -17 -24 -18 -20
-12 145 5 137 3 202 -13 335 -11 91 -27 183 -35 205 -7 22 -20 68 -27 102 -7
34 -34 106 -61 160 -27 54 -47 89 -43 78z"/>
<path d="M2454 3096 c-130 -32 -309 -146 -474 -303 -92 -88 -188 -199 -179
-208 3 -2 41 33 86 78 86 88 291 237 396 287 33 17 70 39 82 50 57 53 210 75
323 46 201 -51 335 -187 493 -502 46 -91 63 -136 65 -171 1 -27 7 -60 13 -75
14 -38 -3 -317 -25 -388 -19 -64 -41 -110 -53 -110 -10 0 -6 137 7 248 18 154
-12 288 -105 463 -63 121 -67 98 -5 -28 59 -118 78 -175 92 -271 13 -93 -1
-223 -36 -334 -24 -77 -32 -88 -98 -153 -99 -97 -184 -139 -284 -140 l-74 0
39 -17 c22 -10 63 -18 98 -18 80 0 181 47 265 125 69 63 102 80 130 65 17 -9
24 0 63 79 54 107 72 200 63 316 -11 144 -48 254 -150 444 -55 102 -62 127
-30 101 8 -8 -3 15 -27 51 -23 35 -89 110 -146 167 -57 56 -101 102 -97 102
20 0 -34 41 -79 61 -116 49 -241 62 -353 35z"/>
<path d="M1647 2953 c-159 -185 -290 -437 -352 -675 -21 -81 -28 -135 -32
-255 -3 -83 -2 -164 2 -180 8 -27 9 -26 16 17 4 25 8 82 8 126 2 198 96 497
214 682 15 23 46 56 69 73 75 54 177 186 163 210 -4 5 -43 -36 -88 -93 -44
-56 -83 -96 -85 -89 -5 16 58 112 115 172 26 28 40 50 33 54 -6 3 -8 11 -5 16
15 23 -5 4 -58 -58z"/>
<path d="M2434 2967 c-34 -13 -101 -50 -149 -83 -47 -32 -125 -80 -173 -105
-82 -44 -189 -125 -178 -137 3 -2 100 57 215 132 286 186 298 191 436 191 104
0 114 -2 175 -32 93 -46 174 -118 283 -253 45 -56 11 5 -39 71 -65 85 -147
154 -231 196 -71 35 -83 38 -177 40 -86 3 -110 0 -162 -20z"/>
<path d="M2555 2923 c-119 -14 -164 -37 -429 -218 -253 -173 -362 -265 -315
-265 6 0 31 18 57 39 26 21 115 87 197 147 362 261 377 269 516 269 94 0 99
-1 178 -41 89 -46 120 -42 45 6 -74 46 -174 72 -249 63z"/>
<path d="M2455 2832 c-70 -26 -107 -50 -340 -222 -232 -171 -301 -225 -376
-297 -47 -46 -91 -83 -98 -83 -6 0 -11 -4 -11 -10 0 -5 16 -10 36 -10 31 0 46
11 137 103 76 78 160 146 332 270 126 91 252 178 280 192 105 53 220 53 322 2
81 -41 168 -112 217 -176 26 -34 49 -61 52 -61 15 0 -46 90 -100 148 -46 48
-87 80 -147 112 -78 41 -91 44 -169 47 -64 3 -97 -1 -135 -15z"/>
<path d="M1286 2674 c-39 -134 -77 -306 -70 -313 9 -10 22 20 34 83 6 34 25
116 41 184 37 151 33 182 -5 46z"/>
<path d="M2503 2760 c-57 -12 -90 -30 -223 -123 -277 -194 -406 -314 -531
-491 -54 -76 -56 -81 -34 -90 11 -4 26 12 52 52 65 102 149 206 205 254 66 56
155 110 176 106 27 -5 24 -27 -7 -59 -25 -24 -35 -29 -45 -20 -33 28 -222
-179 -323 -354 -138 -240 -136 -505 7 -800 27 -55 56 -109 64 -120 9 -11 -4
21 -29 70 -184 363 -155 697 84 973 88 102 191 202 207 202 26 0 15 -21 -51
-93 -92 -102 -149 -180 -194 -267 -65 -126 -83 -196 -88 -356 -6 -168 7 -243
70 -404 42 -105 42 -105 45 -62 2 30 -6 67 -29 125 -74 191 -78 381 -12 579
38 116 103 211 243 359 122 128 148 159 134 159 -3 0 0 8 7 17 10 11 10 14 2
9 -8 -4 -13 -1 -13 9 0 9 5 13 10 10 6 -4 44 24 84 62 41 38 102 84 137 103
62 33 87 37 192 29 34 -2 45 7 28 24 -7 7 -42 12 -94 12 -71 0 -89 -4 -137
-29 -30 -15 -82 -50 -115 -77 -55 -45 -99 -61 -118 -43 -15 16 212 170 280
190 25 8 61 14 79 14 50 0 150 -35 214 -74 51 -32 90 -39 90 -17 0 16 -200
110 -254 120 -33 6 -62 11 -65 10 -3 -1 -25 -5 -48 -9z"/>
<path d="M3352 2745 c2 -5 24 -53 50 -105 99 -199 148 -404 148 -615 0 -205
-41 -347 -134 -469 -24 -31 -30 -43 -16 -33 79 55 157 244 175 422 18 177 -49
486 -146 675 -42 83 -87 155 -77 125z"/>
<path d="M3665 2693 c19 -51 55 -189 55 -214 0 -15 4 -30 9 -34 15 -9 24 33
17 80 -7 42 -69 185 -82 185 -3 0 -3 -8 1 -17z"/>
<path d="M3610 2655 c0 -13 53 -145 57 -141 2 2 -8 34 -22 72 -25 66 -35 86
-35 69z"/>
<path d="M2531 2589 c-39 -16 -17 -22 76 -20 49 1 119 -5 157 -13 55 -11 66
-11 55 -1 -38 37 -226 59 -288 34z"/>
<path d="M2515 2529 c-33 -4 -78 -15 -100 -24 -57 -24 -125 -74 -125 -90 0
-21 2 -20 70 24 76 49 143 65 252 59 149 -8 225 -68 271 -212 31 -101 30 -249
-2 -324 -51 -114 -155 -132 -254 -43 l-41 36 23 -33 c47 -68 123 -104 185 -88
39 10 97 66 119 115 79 180 -34 515 -191 565 -64 20 -135 25 -207 15z"/>
<path d="M2870 2516 c0 -2 8 -10 18 -17 15 -13 16 -12 3 4 -13 16 -21 21 -21
13z"/>
<path d="M3891 2330 c-2 -286 -24 -435 -92 -595 -35 -83 -38 -106 -11 -82 10
10 23 17 29 17 6 0 22 31 37 70 68 184 96 389 77 566 -6 60 -18 134 -25 164
-13 52 -14 46 -15 -140z"/>
<path d="M3270 2507 c0 -3 13 -34 28 -69 58 -129 77 -220 77 -373 0 -157 -14
-217 -83 -350 -50 -95 -182 -227 -277 -277 -147 -76 -306 -96 -419 -52 -16 6
-17 5 -6 -16 l12 -23 -29 21 c-39 28 -113 109 -113 123 0 7 -3 10 -6 6 -18
-18 76 -122 168 -185 53 -36 58 -38 58 -17 0 16 24 21 142 30 170 13 261 56
389 186 53 53 103 99 110 101 19 7 49 -10 49 -27 0 -7 -12 -28 -26 -45 -15
-17 -24 -33 -21 -36 9 -10 117 129 143 183 44 94 57 167 56 303 -1 69 -5 140
-10 158 -15 70 -27 29 -33 -115 -4 -82 -10 -159 -14 -173 -26 -93 -38 -121
-50 -116 -8 3 -19 -1 -25 -9 -8 -10 -7 -16 7 -23 17 -10 17 -12 -3 -39 -43
-57 -61 -27 -31 53 36 96 50 202 44 353 -5 161 -21 230 -83 353 -28 56 -54 92
-54 75z"/>
<path d="M3191 2429 c16 -34 33 -59 36 -56 5 6 -55 117 -63 117 -2 0 10 -27
27 -61z"/>
<path d="M4301 2368 c-2 -294 -64 -556 -190 -808 -72 -144 -135 -234 -243
-345 -253 -263 -560 -399 -903 -399 -243 1 -418 71 -593 238 -36 33 -59 50
-53 37 7 -12 11 -31 8 -42 -4 -14 17 -37 82 -92 89 -76 238 -186 227 -169 -9
15 34 22 79 12 64 -14 297 -43 330 -41 60 3 220 42 337 81 158 53 279 117 402
212 55 43 102 74 105 67 8 -26 -140 -148 -259 -212 -100 -54 -321 -132 -460
-163 -69 -15 -134 -33 -144 -40 -18 -12 -17 -13 10 -20 51 -13 220 12 320 47
92 33 119 34 95 5 -33 -39 -241 -94 -394 -103 -78 -4 -105 -9 -97 -17 19 -19
359 1 415 25 17 7 34 11 38 10 5 -1 6 3 3 8 -4 5 4 18 17 28 13 10 37 39 55
64 26 39 59 61 87 59 3 0 30 15 60 35 31 19 60 35 65 35 6 0 10 4 10 10 0 5
29 33 64 61 70 56 121 119 132 165 8 34 31 68 94 144 152 180 277 469 324 749
23 134 21 358 -4 431 l-18 55 -1 -127z"/>
<path d="M1738 2463 c-24 -27 -60 -103 -55 -116 2 -7 20 21 41 61 37 74 40 84
14 55z"/>
<path d="M2915 2456 c10 -14 19 -26 22 -26 7 0 -17 39 -28 46 -6 3 -3 -5 6
-20z"/>
<path d="M2480 2445 c-150 -43 -310 -201 -394 -392 -75 -172 -74 -396 3 -557
l29 -61 -5 45 -4 45 16 -30 c8 -16 13 -22 10 -12 -32 116 -37 153 -37 252 0
138 25 246 86 370 124 251 316 363 500 294 85 -31 137 -108 136 -200 -1 -32
-3 -29 -36 38 -40 84 -87 127 -155 143 -167 40 -349 -115 -428 -365 -53 -167
-62 -338 -25 -482 18 -69 81 -208 103 -226 13 -10 13 -9 6 8 -5 11 -22 58 -39
105 -29 81 -31 92 -31 245 0 228 36 372 131 516 127 193 336 215 415 44 13
-27 19 -63 19 -113 0 -69 -2 -76 -30 -104 -32 -31 -41 -32 -120 -13 -24 6 -24
6 7 -24 39 -37 96 -50 132 -30 38 22 60 69 73 157 14 98 2 165 -45 242 -60 99
-187 141 -317 105z"/>
<path d="M2913 2410 c52 -95 97 -270 69 -270 -5 0 -11 -39 -14 -88 -3 -65 -10
-100 -27 -136 -47 -96 -132 -156 -223 -156 -51 -1 -52 -1 -28 -15 84 -48 240
46 285 173 25 68 30 256 10 335 -18 69 -54 152 -80 182 -9 11 -6 0 8 -25z"/>
<path d="M3043 2335 c0 -8 4 -12 9 -9 5 3 6 10 3 15 -9 13 -12 11 -12 -6z"/>
<path d="M3056 2305 c-3 -9 -6 -74 -6 -144 0 -139 -13 -209 -56 -292 -34 -68
-103 -135 -171 -166 -46 -21 -65 -25 -117 -20 -33 3 -69 8 -78 12 -28 11 -21
-12 9 -32 45 -30 140 -22 221 18 94 46 191 144 222 224 31 83 38 218 16 316
-19 86 -30 109 -40 84z m33 -128 c5 -45 6 -104 2 -132 -6 -43 -8 -34 -13 65
-4 63 -10 133 -13 155 -5 33 -4 36 5 17 5 -13 14 -60 19 -105z"/>
<path d="M2538 2280 c-78 -23 -178 -151 -222 -282 -21 -61 -26 -95 -25 -170 1
-129 12 -148 27 -47 15 91 54 223 85 284 48 96 125 165 184 165 43 0 93 -46
93 -84 0 -33 -16 -33 -46 -1 -13 14 -33 25 -44 25 -59 0 -130 -103 -130 -187
0 -35 -3 -43 -19 -43 -32 0 -46 -29 -46 -94 0 -103 74 -222 190 -305 43 -31
40 -27 -26 40 -41 41 -87 98 -103 127 -47 89 -45 212 4 212 21 0 30 15 49 86
6 22 21 50 34 62 24 23 67 37 67 23 0 -12 79 -53 90 -46 5 3 10 36 10 73 0 82
-22 129 -71 154 -37 19 -58 21 -101 8z"/>
<path d="M3786 2136 c-5 -38 -14 -85 -21 -106 -13 -38 -18 -190 -6 -190 22 0
59 290 44 337 -9 25 -11 21 -17 -41z"/>
<path d="M1116 2060 c-21 -114 -25 -337 -7 -367 8 -13 10 17 11 114 0 73 5
177 11 232 15 137 7 148 -15 21z"/>
<path d="M1029 2083 c-18 -89 -18 -371 0 -486 7 -48 16 -86 19 -83 3 3 -1 81
-8 173 -9 129 -10 202 -1 312 6 80 9 146 7 148 -2 2 -10 -27 -17 -64z"/>
<path d="M1986 2052 c-104 -171 -138 -442 -80 -632 62 -206 243 -433 509 -639
11 -9 -41 47 -116 124 -290 300 -375 450 -386 682 -6 116 2 193 21 193 8 0 19
32 30 82 10 45 30 119 46 165 16 46 25 83 20 83 -5 0 -24 -26 -44 -58z"/>
<path d="M1559 1954 c-51 -131 -69 -223 -69 -352 1 -318 104 -569 332 -807 80
-84 183 -171 261 -220 51 -32 27 -7 -42 44 -84 62 -261 244 -324 333 -194 272
-254 616 -161 935 24 83 26 125 3 67z"/>
<path d="M1598 1935 c-30 -49 -68 -251 -52 -276 4 -8 19 43 35 126 26 131 31
173 17 150z"/>
<path d="M3675 1725 c-15 -53 -18 -71 -8 -68 18 7 48 106 37 126 -7 11 -14 -4
-29 -58z"/>
<path d="M2380 1686 c37 -99 162 -234 245 -265 66 -25 97 -27 40 -3 -103 44
-156 92 -237 212 -60 90 -62 93 -48 56z"/>
<path d="M1985 1594 c9 -99 43 -224 86 -309 37 -76 136 -212 145 -202 3 2 -22
47 -55 98 -70 110 -135 266 -162 388 -18 82 -18 83 -14 25z"/>
<path d="M1591 1525 c-2 -142 55 -311 155 -463 60 -91 241 -281 367 -384 62
-50 70 -55 92 -44 14 6 25 14 25 19 0 4 -26 24 -57 43 -64 41 -184 135 -252
198 -75 71 -156 179 -208 282 -58 112 -78 176 -103 319 l-18 100 -1 -70z"/>
<path d="M3795 1544 c-71 -122 -204 -262 -270 -284 -19 -6 -35 -13 -35 -16 0
-2 9 -13 20 -24 19 -19 20 -19 78 29 97 81 192 200 228 287 24 57 11 62 -21 8z"/>
<path d="M3389 1484 c-33 -36 -168 -130 -218 -152 -31 -14 -38 -21 -29 -30 7
-7 16 -12 20 -12 7 0 111 66 198 127 22 15 21 13 -5 -16 -16 -18 -67 -55 -113
-83 -106 -65 -116 -82 -21 -32 82 42 223 173 217 201 -5 26 -22 25 -49 -3z"/>
<path d="M3269 1463 c-13 -16 -12 -17 4 -4 16 13 21 21 13 21 -2 0 -10 -8 -17
-17z"/>
<path d="M1232 1399 c-31 -168 6 -337 110 -505 49 -79 189 -212 307 -293 97
-66 107 -54 16 22 -25 21 -45 43 -45 48 0 13 -72 99 -82 99 -5 0 -25 15 -44
33 -20 17 -42 35 -49 40 -30 16 -124 167 -155 247 -31 78 -34 97 -39 230 l-6
145 -13 -66z"/>
<path d="M2366 1450 c40 -82 138 -186 246 -258 l47 -32 20 26 c12 15 21 36 21
46 0 19 -1 19 -19 -3 l-20 -24 -58 30 c-55 29 -175 136 -222 200 -12 17 -19
23 -15 15z"/>
<path d="M1335 1200 c20 -98 77 -219 162 -347 30 -46 61 -83 69 -83 12 0 8 10
-13 38 -69 89 -140 222 -183 342 -27 76 -46 102 -35 50z"/>
<path d="M2436 1152 c-6 -10 61 -76 119 -118 22 -16 46 -35 53 -41 7 -7 17
-13 21 -13 4 0 14 -11 21 -25 10 -18 31 -31 74 -44 166 -51 356 -53 504 -6 80
25 111 43 53 30 -19 -4 -34 -1 -43 8 -11 13 -17 13 -43 -2 -24 -13 -59 -16
-170 -16 -119 0 -151 4 -215 23 -119 38 -273 121 -342 186 -15 14 -29 22 -32
18z"/>
<path d="M2065 875 c49 -48 103 -96 120 -107 35 -23 -86 92 -160 153 -27 23
-10 2 40 -46z"/>
<path d="M2632 682 c27 -32 128 -66 128 -42 0 6 -6 10 -12 10 -7 0 -39 11 -71
24 -43 18 -55 20 -45 8z"/>
<path d="M2361 624 c35 -42 146 -70 156 -38 2 6 -7 9 -25 6 -18 -2 -48 6 -80
22 -59 30 -69 32 -51 10z"/>
<path d="M2625 590 c24 -39 173 -57 203 -25 16 16 16 17 -4 11 -20 -6 -148 8
-188 20 -13 4 -16 2 -11 -6z"/>
</g>
</svg>